<svg width="36" height="35" viewBox="0 0 36 35" fill="none" xmlns="http://www.w3.org/2000/svg">
<path d="M33.9041 1.48242H1.77197V32.8196H33.9041V1.48242Z" fill="#2A0034"/>
<path fill-rule="evenodd" clip-rule="evenodd" d="M0.311279 0.0180664V34.2839H35.3644V0.0180664H0.311279ZM1.77183 1.48242H33.9039V32.8195H1.77183V1.48242Z" fill="#EA77FF"/>
<path fill-rule="evenodd" clip-rule="evenodd" d="M9.5129 8.04288C9.5129 7.94038 9.5421 7.86716 9.65895 7.86716C10.5937 7.82323 11.9666 7.79395 13.4126 7.79395C17.4583 7.79395 19.2256 10.0198 19.2256 12.8605C19.2256 16.5801 16.5381 18.1762 13.2373 18.1762C12.6823 18.1762 12.4924 18.1469 12.098 18.1469V23.77C12.098 23.8872 12.0543 23.9457 11.9228 23.9457H9.67356C9.55671 23.9457 9.49829 23.9018 9.49829 23.77V8.04288H9.5129ZM12.098 15.8186C12.434 15.8479 12.6969 15.8479 13.2811 15.8479C14.9899 15.8479 16.5965 15.2475 16.5965 12.9192C16.5965 11.0595 15.4574 10.1223 13.5002 10.1223C12.916 10.1223 12.3609 10.1515 12.098 10.1662V15.8186ZM21.4456 14.4861C21.4456 14.3103 21.4456 13.8856 21.3725 13.0656C21.3725 12.9485 21.3871 12.9192 21.4894 12.8752C22.3803 12.5091 24.4689 11.8648 26.835 11.8648C26.9518 11.8648 27.0102 11.8941 27.0102 12.0112V14.1345C27.0102 14.2517 26.9665 14.281 26.8496 14.281C25.9294 14.2371 24.6004 14.3543 24.0892 14.5739V23.7994C24.0892 23.9165 24.0453 23.975 23.9139 23.975H21.6208C21.504 23.975 21.4456 23.931 21.4456 23.7994V14.4861Z" fill="#EA77FF"/>
</svg>
